<?xml version="1.0" encoding="UTF-8" standalone="no"?>
<svg xmlns="http://www.w3.org/2000/svg" version="1.1" width="43.05875" height="53.14875" xml:space="preserve"><path transform="matrix(1.25,0,0,-1.25,-70.86625,230.315) translate(56.693,149.2)" d="M 0,0 29.854,0 34.447,-7.467 0,-7.467 0,0 z m 0,11.667 0,-7.415 27.237,0 -4.56,7.415 -22.677,0 z m 29.22,4.252 -29.22,0 0,7.428 31.178,0 c 0.015,-0.291 0.023,-0.585 0.02,-0.886 -0.026,-2.764 -0.687,-4.895 -1.978,-6.542 m -14.229,19.133 -14.991,0 0,-7.453 30.245,0 c -2.185,5.092 -7.94,7.453 -15.254,7.453" style="fill:#311;fill-opacity:1;fill-rule:nonzero;stroke:none" /></svg>
